<?xml version="1.0" standalone="no"?>
<!DOCTYPE svg PUBLIC "-//W3C//DTD SVG 20010904//EN"
 "http://www.w3.org/TR/2001/REC-SVG-20010904/DTD/svg10.dtd">
<svg version="1.0" xmlns="http://www.w3.org/2000/svg"
 width="172.000000pt" height="122.000000pt" viewBox="0 0 172.000000 122.000000"
 preserveAspectRatio="xMidYMid meet">

<g transform="translate(0.000000,122.000000) scale(0.100000,-0.100000)"
fill="#000000" stroke="none">
<path d="M0 690 l0 -530 860 0 860 0 0 495 c0 465 -1 495 -17 495 -14 0 -15 2
-5 9 11 7 11 9 -2 14 -10 4 -16 1 -16 -9 0 -8 -5 -12 -10 -9 -6 4 -8 12 -4 18
3 7 0 5 -8 -3 -16 -18 -60 -22 -70 -6 -5 7 -8 4 -8 -7 0 -17 -3 -16 -32 4 -22
16 -28 17 -19 6 8 -10 9 -17 3 -17 -6 0 -18 -3 -28 -7 -14 -5 -16 -3 -11 10 5
15 3 16 -13 7 -25 -13 -50 -13 -50 1 0 6 7 8 16 5 8 -3 12 -2 9 4 -3 6 -12 10
-19 10 -8 0 -16 9 -19 20 -7 26 -55 28 -64 3 -4 -10 -11 -21 -17 -25 -11 -8
20 -12 62 -8 12 1 22 -4 22 -10 0 -6 -4 -9 -9 -5 -5 3 -13 1 -16 -5 -5 -8 -11
-7 -21 1 -11 9 -17 9 -29 -1 -10 -9 -15 -9 -15 -1 0 6 -5 11 -11 11 -5 0 -7
-4 -4 -10 3 -6 -1 -7 -10 -3 -12 4 -13 8 -5 13 9 5 9 9 1 14 -6 4 -11 16 -11
26 0 17 -7 19 -55 17 -50 -2 -55 -4 -55 -26 0 -20 -4 -22 -26 -17 -22 6 -24 5
-12 -7 7 -8 19 -12 27 -9 8 3 12 1 8 -5 -6 -10 -104 -9 -114 1 -4 3 -1 6 5 6
7 0 12 4 12 9 0 5 -8 8 -17 7 -10 -2 -16 -7 -14 -12 6 -11 -45 -21 -76 -16
-15 3 -20 9 -16 21 6 14 4 14 -14 -1 -24 -22 -43 -23 -43 -3 0 8 -4 15 -9 15
-5 0 -7 -10 -4 -21 5 -18 3 -20 -13 -11 -10 5 -26 7 -34 5 -9 -3 -7 1 5 12 17
14 17 16 3 11 -14 -4 -18 0 -18 19 l0 25 -415 0 -415 0 0 -530z m780 467 c0
-8 -7 -14 -15 -14 -11 0 -12 4 -4 14 6 7 13 13 15 13 2 0 4 -6 4 -13z m35 3
c3 -5 -1 -10 -9 -10 -9 0 -16 5 -16 10 0 6 4 10 9 10 6 0 13 -4 16 -10z m315
-40 c0 -5 -7 -7 -15 -4 -8 4 -15 8 -15 10 0 2 7 4 15 4 8 0 15 -4 15 -10z
m-62 -25 c-3 -3 -9 2 -12 12 -6 14 -5 15 5 6 7 -7 10 -15 7 -18z m542 21 c0
-2 -8 -10 -17 -17 -16 -13 -17 -12 -4 4 13 16 21 21 21 13z m-209 -29 c-10 -9
-11 -8 -5 6 3 10 9 15 12 12 3 -3 0 -11 -7 -18z m-151 -3 c0 -8 -19 -13 -24
-6 -3 5 1 9 9 9 8 0 15 -2 15 -3z m403 -1 c-7 -2 -19 -2 -25 0 -7 3 -2 5 12 5
14 0 19 -2 13 -5z m44 -45 c-3 -8 -6 -5 -6 6 -1 11 2 17 5 13 3 -3 4 -12 1
-19z m-567 -8 c0 -5 -7 -10 -15 -10 -8 0 -15 5 -15 10 0 6 7 10 15 10 8 0 15
-4 15 -10z m-220 -10 c0 -5 -7 -10 -15 -10 -8 0 -15 5 -15 10 0 6 7 10 15 10
8 0 15 -4 15 -10z m188 -2 c9 -9 17 -8 37 2 47 25 335 -20 335 -52 0 -13 -28
-9 -33 5 -4 9 -6 9 -6 -1 -1 -18 27 -26 43 -13 11 10 21 6 47 -17 19 -17 29
-33 25 -41 -10 -15 -862 -15 -872 1 -19 31 142 115 200 104 16 -3 34 -2 40 3
25 21 165 28 184 9z m-431 -245 c-3 -10 -5 -4 -5 12 0 17 2 24 5 18 2 -7 2
-21 0 -30z m83 12 c0 -22 -4 -25 -35 -25 -31 0 -35 3 -35 25 0 22 4 25 35 25
31 0 35 -3 35 -25z m790 0 c0 -22 -4 -25 -35 -25 -31 0 -35 3 -35 25 0 22 4
25 35 25 31 0 35 -3 35 -25z m17 -12 c-3 -10 -5 -4 -5 12 0 17 2 24 5 18 2 -7
2 -21 0 -30z m-587 -3 c0 -16 -4 -30 -10 -30 -5 0 -10 14 -10 30 0 17 5 30 10
30 6 0 10 -13 10 -30z m270 0 l0 -30 -130 0 -130 0 0 30 0 30 130 0 130 0 0
-30z m30 0 c0 -16 -4 -30 -10 -30 -5 0 -10 14 -10 30 0 17 5 30 10 30 6 0 10
-13 10 -30z m-426 -27 c4 -8 -3 -13 -17 -13 -25 0 -47 17 -47 36 0 16 57 -4
64 -23z m586 2 c-16 -19 -61 -20 -54 -2 6 16 58 36 62 25 2 -5 -2 -15 -8 -23z
m-779 -10 c1 -17 -18 -17 -25 0 -4 11 -1 15 10 13 8 -2 15 -7 15 -13z m943 0
c-7 -17 -20 -20 -28 -6 -7 10 3 21 20 21 8 0 11 -6 8 -15z m-877 -11 c2 -6 -9
-14 -24 -17 -33 -6 -38 -3 -29 18 7 18 47 17 53 -1z m48 6 c3 -5 -1 -10 -9
-10 -9 0 -16 5 -16 10 0 6 4 10 9 10 6 0 13 -4 16 -10z m269 0 c58 0 59 -1 38
-16 -12 -8 -20 -21 -16 -27 3 -7 -3 -2 -14 11 -19 21 -24 21 -72 11 -42 -9
-54 -8 -68 4 -9 8 -24 12 -32 10 -13 -4 -13 -3 0 7 9 6 33 9 59 5 24 -3 71 -5
105 -5z m316 -1 c13 -9 13 -10 0 -6 -8 2 -23 -2 -32 -10 -14 -12 -26 -13 -68
-4 -48 10 -53 10 -72 -11 -11 -13 -17 -18 -14 -11 4 6 -3 18 -15 27 -21 14
-17 15 57 19 43 1 90 4 104 5 14 1 32 -3 40 -9z m130 1 c0 -5 -7 -10 -16 -10
-8 0 -12 5 -9 10 3 6 10 10 16 10 5 0 9 -4 9 -10z m78 -13 c3 -15 -1 -17 -25
-11 -35 8 -37 10 -28 24 10 17 49 8 53 -13z m-768 -127 l0 -30 -70 0 -70 0 0
30 0 30 70 0 70 0 0 -30z m30 0 c0 -16 -4 -30 -10 -30 -5 0 -10 14 -10 30 0
17 5 30 10 30 6 0 10 -13 10 -30z m27 -17 c-3 -10 -5 -2 -5 17 0 19 2 27 5 18
2 -10 2 -26 0 -35z m473 17 l0 -30 -210 0 -210 0 0 30 0 30 210 0 210 0 0 -30z
m57 -17 c-3 -10 -5 -2 -5 17 0 19 2 27 5 18 2 -10 2 -26 0 -35z m43 17 c0 -16
-4 -30 -10 -30 -5 0 -10 14 -10 30 0 17 5 30 10 30 6 0 10 -13 10 -30z m150 0
l0 -30 -70 0 -70 0 0 30 0 30 70 0 70 0 0 -30z m20 -60 c0 -20 -7 -20 -480
-20 -473 0 -480 0 -480 20 0 20 7 20 480 20 473 0 480 0 480 -20z m-1138 -56
c13 -4 16 -20 8 -44 -1 -3 -1 -17 0 -32 1 -16 -4 -28 -10 -28 -6 0 -8 -4 -5
-10 8 -14 -81 -13 -106 1 -11 5 -17 14 -14 20 4 5 1 9 -6 9 -6 0 -9 8 -6 19 2
10 0 26 -5 35 -6 10 -5 16 2 16 6 0 9 4 6 8 -6 9 109 14 136 6z m-128 -109
c20 -20 35 -25 75 -25 27 0 53 5 56 10 18 29 45 -20 45 -82 l0 -40 -119 4
c-95 3 -118 1 -114 -9 3 -7 0 -13 -6 -13 -6 0 -11 8 -11 18 0 14 -2 15 -10 2
-8 -13 -10 -13 -10 2 0 9 -6 19 -12 21 -8 3 -6 6 5 6 11 1 17 9 16 24 0 21 -1
21 -9 2 -8 -18 -9 -18 -9 -2 -1 28 25 84 46 96 26 15 29 14 57 -14z m34 -182
c2 -9 -10 -13 -42 -13 -43 0 -55 7 -39 24 12 11 76 2 81 -11z"/>
<path d="M995 990 c-4 -7 -3 -16 3 -22 14 -14 45 -2 40 15 -6 16 -34 21 -43 7z
m35 -10 c0 -5 -7 -10 -15 -10 -8 0 -15 5 -15 10 0 6 7 10 15 10 8 0 15 -4 15
-10z"/>
<path d="M1225 990 c-4 -7 -3 -16 3 -22 14 -14 45 -2 40 15 -6 16 -34 21 -43
7z m35 -10 c0 -5 -7 -10 -15 -10 -8 0 -15 5 -15 10 0 6 7 10 15 10 8 0 15 -4
15 -10z"/>
<path d="M775 970 c-4 -7 -3 -16 3 -22 14 -14 45 -2 40 15 -6 16 -34 21 -43 7z
m35 -10 c0 -5 -7 -10 -15 -10 -8 0 -15 5 -15 10 0 6 7 10 15 10 8 0 15 -4 15
-10z"/>
<path d="M1115 950 c-4 -7 -3 -16 3 -22 14 -14 45 -2 40 15 -6 16 -34 21 -43
7z m35 -10 c0 -5 -7 -10 -15 -10 -8 0 -15 5 -15 10 0 6 7 10 15 10 8 0 15 -4
15 -10z"/>
<path d="M1335 950 c-4 -7 -3 -16 3 -22 14 -14 45 -2 40 15 -6 16 -34 21 -43
7z m35 -10 c0 -5 -7 -10 -15 -10 -8 0 -15 5 -15 10 0 6 7 10 15 10 8 0 15 -4
15 -10z"/>
<path d="M885 940 c-4 -7 -3 -16 3 -22 14 -14 45 -2 40 15 -6 16 -34 21 -43 7z
m35 -10 c0 -5 -7 -10 -15 -10 -8 0 -15 5 -15 10 0 6 7 10 15 10 8 0 15 -4 15
-10z"/>
<path d="M695 920 c-4 -6 -4 -14 -1 -17 3 -4 6 -1 6 5 0 15 26 16 33 2 3 -6 4
-5 3 2 -3 17 -32 22 -41 8z"/>
<path d="M403 393 c9 -2 23 -2 30 0 6 3 -1 5 -18 5 -16 0 -22 -2 -12 -5z"/>
<path d="M281 292 c0 -13 6 -30 14 -38 13 -14 15 -14 15 0 0 9 -4 16 -9 16 -5
0 -12 10 -14 23 l-4 22 -2 -23z"/>
<path d="M1600 1189 c0 -16 4 -28 9 -25 8 5 3 56 -5 56 -2 0 -4 -14 -4 -31z"/>
<path d="M986 1168 c3 -5 10 -6 15 -3 13 9 11 12 -6 12 -8 0 -12 -4 -9 -9z"/>
<path d="M1096 1164 c-5 -14 -4 -15 9 -4 17 14 19 20 6 20 -5 0 -12 -7 -15
-16z"/>
<path d="M0 30 l0 -30 860 0 860 0 0 30 0 30 -860 0 -860 0 0 -30z"/>
</g>
</svg>
